<svg xmlns="http://www.w3.org/2000/svg" version="1.1" xmlns:xlink="http://www.w3.org/1999/xlink" xmlns:svgjs="http://svgjs.dev/svgjs" width="1500" height="1500" viewBox="0 0 1500 1500"><rect width="1500" height="1500" fill="#ffffff"></rect><g transform="matrix(0.6666666666666666,0,0,0.6666666666666666,249.78425655976667,249.78425655976673)"><svg viewBox="0 0 343 343" data-background-color="#ffffff" preserveAspectRatio="xMidYMid meet" height="1500" width="1500" xmlns="http://www.w3.org/2000/svg" xmlns:xlink="http://www.w3.org/1999/xlink"><g id="tight-bounds" transform="matrix(1,0,0,1,0.0740000000000407,0.07400000000001228)"><svg viewBox="0 0 342.85155851775386 342.85155851775386" height="342.85155851775386" width="342.85155851775386"><g><svg></svg></g><g><svg viewBox="0 0 342.85155851775386 342.85155851775386" height="342.85155851775386" width="342.85155851775386"><g><path d="M0 171.426c0-94.676 76.75-171.426 171.426-171.426 94.676 0 171.426 76.75 171.426 171.426 0 94.676-76.75 171.426-171.426 171.426-94.676 0-171.426-76.75-171.426-171.426zM171.426 341.236c93.784 0 169.81-76.027 169.81-169.81 0-93.784-76.027-169.81-169.81-169.811-93.784 0-169.81 76.027-169.811 169.811 0 93.784 76.027 169.81 169.811 169.81z" data-fill-palette-color="tertiary" fill="#556970" stroke="transparent"></path><ellipse rx="164.56874808852186" ry="164.56874808852186" cx="171.42577925887693" cy="171.42577925887693" fill="#556970" stroke="transparent" stroke-width="0" fill-opacity="1" data-fill-palette-color="tertiary"></ellipse></g><g transform="matrix(1,0,0,1,64.84655864529837,129.75490681593317)"><svg viewBox="0 0 213.1584412271571 83.34174488588752" height="83.34174488588752" width="213.1584412271571"><g><svg viewBox="0 0 213.1584412271571 83.34174488588752" height="83.34174488588752" width="213.1584412271571"><g><svg viewBox="0 0 213.1584412271571 83.34174488588752" height="83.34174488588752" width="213.1584412271571"><g transform="matrix(1,0,0,1,0,50.12897194234487)"><svg viewBox="0 0 213.1584412271571 33.21277294354265" height="33.21277294354265" width="213.1584412271571"><g id="textblocktransform"><svg viewBox="0 0 213.1584412271571 33.21277294354265" height="33.21277294354265" width="213.1584412271571" id="textblock"><g><svg viewBox="0 0 213.1584412271571 17.9133827003546" height="17.9133827003546" width="213.1584412271571"><g transform="matrix(1,0,0,1,0,0)"><svg width="213.1584412271571" viewBox="1.3 -38.7 591.34 49.7" height="17.9133827003546" data-palette-color="#ffffff"><path d="M11.9-5.1L11.9-5.1Q13.35-5.1 14.95-5.85 16.55-6.6 17.45-7.35L17.45-7.35 18.35-8.1 20.65-5.3Q20.15-4.45 19.1-3.35 18.05-2.25 16.98-1.48 15.9-0.7 14.13-0.08 12.35 0.55 10.45 0.55L10.45 0.55Q6.4 0.55 3.85-2.53 1.3-5.6 1.3-10.45L1.3-10.45Q1.3-16.55 4.85-21.15 8.4-25.75 13.15-25.75L13.15-25.75Q16.8-25.75 18.82-23.7 20.85-21.65 20.85-17.95L20.85-17.95Q20.85-15.75 20.1-12.95L20.1-12.95 19.1-11.9 6.6-10.75Q7.45-5.1 11.9-5.1ZM11.9-20.6L11.9-20.6Q9.7-20.6 8.2-18.82 6.7-17.05 6.45-14.3L6.45-14.3 14.95-15.35Q15.1-16.5 15.1-17.25L15.1-17.25Q15.1-20.6 11.9-20.6ZM39.7-12.65Q39.7-16.1 39.1-17.25 38.5-18.4 36.3-18.4 34.1-18.4 31.3-16.65L31.3-16.65 31.3-13 31.85-1.25 25.15 0 25.75-12.15Q25.55-18.85 24.65-24.15L24.65-24.15 30.7-25.45Q31.05-22.55 31.2-19.8L31.2-19.8Q31.95-20.8 32.9-21.78 33.85-22.75 35.9-23.98 37.95-25.2 40.05-25.2 42.15-25.2 43.6-23.85 45.05-22.5 45.45-20.15L45.45-20.15Q49.6-25.2 53.85-25.2L53.85-25.2Q56.5-25.2 58.05-23.43 59.6-21.65 59.6-18.6L59.6-18.6 59.3-13 59.85-1 53.1 0.25 53.7-12.65Q53.7-16.1 53.1-17.25 52.5-18.4 50.35-18.4 48.2-18.4 45.5-16.75L45.5-16.75 45.3-13 45.85-1 39.1 0.25 39.7-12.65ZM78.7-25.25L78.7-25.25Q81.9-25.25 84.07-22.45 86.25-19.65 86.25-14.9L86.25-14.9Q86.25-8.25 82.82-4.13 79.4 0 74.3 0L74.3 0Q73.25 0 71.95-0.15L71.95-0.15 72.2 9.4 65.35 10.65 66-12.15 66.05-12.15Q65.85-18.85 64.95-24.15L64.95-24.15 71-25.45Q71.3-22.8 71.5-20.2L71.5-20.2Q71.6-20.45 72.52-21.58 73.45-22.7 75.25-23.98 77.05-25.25 78.7-25.25ZM76.75-18.75L76.75-18.75Q74.1-18.75 71.6-17.3L71.6-17.3 71.6-13 71.8-5.85Q74.5-5.4 75.9-5.4L75.9-5.4Q80.7-5.4 80.7-12.08 80.7-18.75 76.75-18.75ZM90.39-37.45L97.24-38.7 96.59-13 97.14-1.25 90.39 0 90.99-12.15 90.39-37.45ZM101.54-10.45Q101.54-16.85 104.99-21.3 108.44-25.75 113.07-25.75 117.69-25.75 120.27-22.75 122.84-19.75 122.84-14.8L122.84-14.8Q122.84-8.2 119.52-3.83 116.19 0.55 111.14 0.55L111.14 0.55Q106.99 0.55 104.27-2.58 101.54-5.7 101.54-10.45L101.54-10.45ZM117.24-12.2L117.24-12.2Q117.24-19.45 112.29-19.45L112.29-19.45Q107.14-19.45 107.14-12.65L107.14-12.65Q107.14-9.1 108.59-7.1 110.04-5.1 112.42-5.1 114.79-5.1 116.02-6.93 117.24-8.75 117.24-12.2ZM134.29 11L127.84 9.65 132.99-1.9 129.29-12 124.24-24.15 130.89-25.4 134.09-14.75 135.74-9.7 136.39-9.7 137.59-13.35 141.19-25.45 147.34-24.7 138.49-1.45 134.29 11ZM159.39-5.1L159.39-5.1Q160.84-5.1 162.44-5.85 164.04-6.6 164.94-7.35L164.94-7.35 165.84-8.1 168.14-5.3Q167.64-4.45 166.59-3.35 165.54-2.25 164.46-1.48 163.39-0.7 161.61-0.08 159.84 0.55 157.94 0.55L157.94 0.55Q153.89 0.55 151.34-2.53 148.79-5.6 148.79-10.45L148.79-10.45Q148.79-16.55 152.34-21.15 155.89-25.75 160.64-25.75L160.64-25.75Q164.29-25.75 166.31-23.7 168.34-21.65 168.34-17.95L168.34-17.95Q168.34-15.75 167.59-12.95L167.59-12.95 166.59-11.9 154.09-10.75Q154.94-5.1 159.39-5.1ZM159.39-20.6L159.39-20.6Q157.19-20.6 155.69-18.82 154.19-17.05 153.94-14.3L153.94-14.3 162.44-15.35Q162.59-16.5 162.59-17.25L162.59-17.25Q162.59-20.6 159.39-20.6ZM181.68-5.1L181.68-5.1Q183.13-5.1 184.73-5.85 186.33-6.6 187.23-7.35L187.23-7.35 188.13-8.1 190.43-5.3Q189.93-4.45 188.88-3.35 187.83-2.25 186.76-1.48 185.68-0.7 183.91-0.08 182.13 0.55 180.23 0.55L180.23 0.55Q176.18 0.55 173.63-2.53 171.08-5.6 171.08-10.45L171.08-10.45Q171.08-16.55 174.63-21.15 178.18-25.75 182.93-25.75L182.93-25.75Q186.58-25.75 188.61-23.7 190.63-21.65 190.63-17.95L190.63-17.95Q190.63-15.75 189.88-12.95L189.88-12.95 188.88-11.9 176.38-10.75Q177.23-5.1 181.68-5.1ZM181.68-20.6L181.68-20.6Q179.48-20.6 177.98-18.82 176.48-17.05 176.23-14.3L176.23-14.3 184.73-15.35Q184.88-16.5 184.88-17.25L184.88-17.25Q184.88-20.6 181.68-20.6ZM217.18-12.65Q217.18-16.1 216.58-17.25 215.98-18.4 213.78-18.4 211.58-18.4 208.78-16.65L208.78-16.65 208.78-13 209.33-1.25 202.63 0 203.23-12.15Q203.03-18.85 202.13-24.15L202.13-24.15 208.18-25.45Q208.53-22.55 208.68-19.8L208.68-19.8Q209.43-20.8 210.38-21.78 211.33-22.75 213.38-23.98 215.43-25.2 217.53-25.2 219.63-25.2 221.08-23.85 222.53-22.5 222.93-20.15L222.93-20.15Q227.08-25.2 231.33-25.2L231.33-25.2Q233.98-25.2 235.53-23.43 237.08-21.65 237.08-18.6L237.08-18.6 236.78-13 237.33-1 230.58 0.25 231.18-12.65Q231.18-16.1 230.58-17.25 229.98-18.4 227.83-18.4 225.68-18.4 222.98-16.75L222.98-16.75 222.78-13 223.33-1 216.58 0.25 217.18-12.65ZM247.83 0Q244.88 0 243-1.88 241.13-3.75 241.13-6.93 241.13-10.1 244.03-12.43 246.93-14.75 251.08-14.75L251.08-14.75 254.48-14.75 254.48-15.6Q254.48-18.05 253.48-18.95 252.48-19.85 249.73-19.85L249.73-19.85Q248.58-19.85 247-19.38 245.43-18.9 243.48-17.9L243.48-17.9 242.03-21.85Q244.18-23.35 247.25-24.55 250.33-25.75 252.33-25.75L252.33-25.75Q260.18-25.75 260.18-18.15L260.18-18.15 260.18-8.35Q260.18-5.55 261.93-2.1L261.93-2.1 256.63 0.15Q255.38-2.25 254.78-4.15L254.78-4.15Q252.03 0 247.83 0L247.83 0ZM249.93-5.1L249.93-5.1Q251.93-5.1 254.48-7.15L254.48-7.15 254.48-10.5Q251.83-11.1 250.18-11.1L250.18-11.1Q247.03-11.1 247.03-8.3L247.03-8.3Q247.03-6.85 247.83-5.98 248.63-5.1 249.93-5.1ZM280.77-12.65Q280.77-16.1 280.17-17.25 279.57-18.4 277.37-18.4 275.17-18.4 272.37-16.65L272.37-16.65 272.37-13 272.92-1.25 266.22 0 266.82-12.15Q266.62-18.85 265.72-24.15L265.72-24.15 271.77-25.45Q272.12-22.55 272.27-19.8L272.27-19.8Q273.02-20.8 273.97-21.78 274.92-22.75 276.97-23.98 279.02-25.2 281.3-25.2 283.57-25.2 285.12-23.43 286.67-21.65 286.67-18.6L286.67-18.6 286.37-13 286.92-1 280.17 0.25 280.77-12.65ZM297.42 0Q294.47 0 292.6-1.88 290.72-3.75 290.72-6.93 290.72-10.1 293.62-12.43 296.52-14.75 300.67-14.75L300.67-14.75 304.07-14.75 304.07-15.6Q304.07-18.05 303.07-18.95 302.07-19.85 299.32-19.85L299.32-19.85Q298.17-19.85 296.6-19.38 295.02-18.9 293.07-17.9L293.07-17.9 291.62-21.85Q293.77-23.35 296.85-24.55 299.92-25.75 301.92-25.75L301.92-25.75Q309.77-25.75 309.77-18.15L309.77-18.15 309.77-8.35Q309.77-5.55 311.52-2.1L311.52-2.1 306.22 0.15Q304.97-2.25 304.37-4.15L304.37-4.15Q301.62 0 297.42 0L297.42 0ZM299.52-5.1L299.52-5.1Q301.52-5.1 304.07-7.15L304.07-7.15 304.07-10.5Q301.42-11.1 299.77-11.1L299.77-11.1Q296.62-11.1 296.62-8.3L296.62-8.3Q296.62-6.85 297.42-5.98 298.22-5.1 299.52-5.1ZM314.12 4.95L314.12 4.95Q314.12 0.55 322.32-1.95L322.32-1.95Q320.37-2.95 320.37-4.55L320.37-4.55Q320.37-5.2 320.87-5.85 321.37-6.5 322.32-7.2L322.32-7.2 322.32-7.6Q318.72-7.6 316.59-9.6 314.47-11.6 314.47-14.95L314.47-14.95Q314.47-19.3 318.02-22.53 321.57-25.75 326.42-25.75L326.42-25.75Q327.67-25.75 330.07-25.25 332.47-24.75 334.77-24.75L334.77-24.75 338.62-24.75 338.12-20.4 334.37-20.85Q334.87-19.4 334.87-17.55 334.87-15.7 333.99-13.88 333.12-12.05 331.89-10.95 330.67-9.85 329.44-9.03 328.22-8.2 327.34-7.58 326.47-6.95 326.47-6.45L326.47-6.45Q326.47-5.5 328.47-4.8L328.47-4.8Q333.77-2.65 335.64-1.15 337.52 0.35 337.52 2.55L337.52 2.55Q337.52 6.25 333.79 8.63 330.07 11 324.92 11 319.77 11 316.94 9.35 314.12 7.7 314.12 4.95ZM329.22-16.05L329.22-16.05Q329.22-18.5 328.12-19.65 327.02-20.8 324.67-20.8L324.67-20.8Q320.12-20.8 320.12-16.32 320.12-11.85 324.97-11.85L324.97-11.85Q329.22-11.85 329.22-16.05ZM331.02 3.3L331.02 3.3Q331.02 2.4 330.07 1.63 329.12 0.85 326.67-0.2L326.67-0.2Q323.02 0.8 321.64 1.65 320.27 2.5 320.27 3.75 320.27 5 321.64 5.78 323.02 6.55 325.47 6.55 327.92 6.55 329.47 5.65 331.02 4.75 331.02 3.3ZM355.76-12.65Q355.76-16.1 355.17-17.25 354.56-18.4 352.37-18.4 350.17-18.4 347.37-16.65L347.37-16.65 347.37-13 347.92-1.25 341.22 0 341.81-12.15Q341.62-18.85 340.72-24.15L340.72-24.15 346.76-25.45Q347.12-22.55 347.26-19.8L347.26-19.8Q348.01-20.8 348.97-21.78 349.92-22.75 351.97-23.98 354.01-25.2 356.12-25.2 358.22-25.2 359.67-23.85 361.12-22.5 361.51-20.15L361.51-20.15Q365.67-25.2 369.92-25.2L369.92-25.2Q372.56-25.2 374.12-23.43 375.67-21.65 375.67-18.6L375.67-18.6 375.37-13 375.92-1 369.17 0.25 369.76-12.65Q369.76-16.1 369.17-17.25 368.56-18.4 366.42-18.4 364.26-18.4 361.56-16.75L361.56-16.75 361.37-13 361.92-1 355.17 0.25 355.76-12.65ZM390.41-5.1L390.41-5.1Q391.86-5.1 393.46-5.85 395.06-6.6 395.96-7.35L395.96-7.35 396.86-8.1 399.16-5.3Q398.66-4.45 397.61-3.35 396.56-2.25 395.49-1.48 394.41-0.7 392.64-0.08 390.86 0.55 388.96 0.55L388.96 0.55Q384.91 0.55 382.36-2.53 379.81-5.6 379.81-10.45L379.81-10.45Q379.81-16.55 383.36-21.15 386.91-25.75 391.66-25.75L391.66-25.75Q395.31-25.75 397.34-23.7 399.36-21.65 399.36-17.95L399.36-17.95Q399.36-15.75 398.61-12.95L398.61-12.95 397.61-11.9 385.11-10.75Q385.96-5.1 390.41-5.1ZM390.41-20.6L390.41-20.6Q388.21-20.6 386.71-18.82 385.21-17.05 384.96-14.3L384.96-14.3 393.46-15.35Q393.61-16.5 393.61-17.25L393.61-17.25Q393.61-20.6 390.41-20.6ZM418.21-12.65Q418.21-16.1 417.61-17.25 417.01-18.4 414.81-18.4 412.61-18.4 409.81-16.65L409.81-16.65 409.81-13 410.36-1.25 403.66 0 404.26-12.15Q404.06-18.85 403.16-24.15L403.16-24.15 409.21-25.45Q409.56-22.55 409.71-19.8L409.71-19.8Q410.46-20.8 411.41-21.78 412.36-22.75 414.41-23.98 416.46-25.2 418.74-25.2 421.01-25.2 422.56-23.43 424.11-21.65 424.11-18.6L424.11-18.6 423.81-13 424.36-1 417.61 0.25 418.21-12.65ZM428.91-24.2L431.81-24.2 431.81-29.65 438.56-30.95 437.91-24.2 443.96-24.2 443.41-20.1 437.71-20.1 437.46-9.65Q437.46-7.3 437.91-6.53 438.36-5.75 439.56-5.75 440.76-5.75 442.76-6.3L442.76-6.3 443.06-2.75Q439.76 0 437.26 0 434.76 0 433.16-1.83 431.56-3.65 431.56-6.6L431.56-6.6 431.86-12.2 431.81-20.1 428.36-20.1 428.91-24.2ZM462.85-4.65L462.85-4.65Q465.45-4.65 465.45-6.95L465.45-6.95Q465.45-7.75 464.33-8.45 463.2-9.15 461.58-9.85 459.95-10.55 458.33-11.43 456.7-12.3 455.58-13.85 454.45-15.4 454.45-17.4L454.45-17.4Q454.45-20.75 457.4-23.25 460.35-25.75 464.2-25.75L464.2-25.75Q466-25.75 467.73-25.33 469.45-24.9 471.05-24L471.05-24 467.7-17.9Q467.35-18.2 466.8-18.65 466.25-19.1 464.73-19.83 463.2-20.55 462.03-20.55 460.85-20.55 460.23-20.03 459.6-19.5 459.6-18.57 459.6-17.65 461.33-16.73 463.05-15.8 465.1-15.03 467.15-14.25 468.88-12.48 470.6-10.7 470.6-8.25L470.6-8.25Q470.6-4.75 467.73-2.1 464.85 0.55 461.1 0.55L461.1 0.55Q458.7 0.55 456.63-0.5 454.55-1.55 453.65-2.6L453.65-2.6 452.75-3.65 456.7-8.25Q457-7.85 457.55-7.25 458.1-6.65 459.73-5.65 461.35-4.65 462.85-4.65ZM482.15 11L475.7 9.65 480.85-1.9 477.15-12 472.1-24.15 478.75-25.4 481.95-14.75 483.6-9.7 484.25-9.7 485.45-13.35 489.05-25.45 495.2-24.7 486.35-1.45 482.15 11ZM505.8-4.65L505.8-4.65Q508.4-4.65 508.4-6.95L508.4-6.95Q508.4-7.75 507.27-8.45 506.15-9.15 504.52-9.85 502.9-10.55 501.27-11.43 499.65-12.3 498.52-13.85 497.4-15.4 497.4-17.4L497.4-17.4Q497.4-20.75 500.35-23.25 503.3-25.75 507.15-25.75L507.15-25.75Q508.95-25.75 510.67-25.33 512.4-24.9 514-24L514-24 510.65-17.9Q510.3-18.2 509.75-18.65 509.2-19.1 507.67-19.83 506.15-20.55 504.97-20.55 503.8-20.55 503.17-20.03 502.55-19.5 502.55-18.57 502.55-17.65 504.27-16.73 506-15.8 508.05-15.03 510.1-14.25 511.82-12.48 513.55-10.7 513.55-8.25L513.55-8.25Q513.55-4.75 510.67-2.1 507.8 0.55 504.05 0.55L504.05 0.55Q501.65 0.55 499.57-0.5 497.5-1.55 496.6-2.6L496.6-2.6 495.7-3.65 499.65-8.25Q499.95-7.85 500.5-7.25 501.05-6.65 502.67-5.65 504.3-4.65 505.8-4.65ZM517-24.2L519.89-24.2 519.89-29.65 526.64-30.95 526-24.2 532.04-24.2 531.5-20.1 525.79-20.1 525.54-9.65Q525.54-7.3 526-6.53 526.44-5.75 527.64-5.75 528.84-5.75 530.84-6.3L530.84-6.3 531.14-2.75Q527.84 0 525.34 0 522.84 0 521.25-1.83 519.64-3.65 519.64-6.6L519.64-6.6 519.94-12.2 519.89-20.1 516.44-20.1 517-24.2ZM544.69-5.1L544.69-5.1Q546.14-5.1 547.74-5.85 549.34-6.6 550.24-7.35L550.24-7.35 551.14-8.1 553.44-5.3Q552.94-4.45 551.89-3.35 550.84-2.25 549.77-1.48 548.69-0.7 546.92-0.08 545.14 0.55 543.24 0.55L543.24 0.55Q539.19 0.55 536.64-2.53 534.09-5.6 534.09-10.45L534.09-10.45Q534.09-16.55 537.64-21.15 541.19-25.75 545.94-25.75L545.94-25.75Q549.59-25.75 551.62-23.7 553.64-21.65 553.64-17.95L553.64-17.95Q553.64-15.75 552.89-12.95L552.89-12.95 551.89-11.9 539.39-10.75Q540.24-5.1 544.69-5.1ZM544.69-20.6L544.69-20.6Q542.49-20.6 540.99-18.82 539.49-17.05 539.24-14.3L539.24-14.3 547.74-15.35Q547.89-16.5 547.89-17.25L547.89-17.25Q547.89-20.6 544.69-20.6ZM572.49-12.65Q572.49-16.1 571.89-17.25 571.29-18.4 569.09-18.4 566.89-18.4 564.09-16.65L564.09-16.65 564.09-13 564.64-1.25 557.94 0 558.54-12.15Q558.34-18.85 557.44-24.15L557.44-24.15 563.49-25.45Q563.84-22.55 563.99-19.8L563.99-19.8Q564.74-20.8 565.69-21.78 566.64-22.75 568.69-23.98 570.74-25.2 572.84-25.2 574.94-25.2 576.39-23.85 577.84-22.5 578.24-20.15L578.24-20.15Q582.39-25.2 586.64-25.2L586.64-25.2Q589.29-25.2 590.84-23.43 592.39-21.65 592.39-18.6L592.39-18.6 592.09-13 592.64-1 585.89 0.25 586.49-12.65Q586.49-16.1 585.89-17.25 585.29-18.4 583.14-18.4 580.99-18.4 578.29-16.75L578.29-16.75 578.09-13 578.64-1 571.89 0.25 572.49-12.65Z" opacity="1" transform="matrix(1,0,0,1,0,0)" fill="#ffffff" class="wordmark-text-0" data-fill-palette-color="quaternary" id="text-0"></path></svg></g></svg></g><g transform="matrix(1,0,0,1,0,22.14230243472351)"><svg viewBox="0 0 213.1584412271571 11.070470508819142" height="11.070470508819142" width="213.1584412271571"><g transform="matrix(1,0,0,1,0,0)"><svg width="213.1584412271571" viewBox="2.29 -31.69 766.71 39.82" height="11.070470508819142" data-palette-color="#ffffff"><path d="M11.28 0.29L11.28 0.29Q9.28 0.29 8.11-0.34 6.93-0.98 6.05-2.25L6.05-2.25 5.44-2.25 5.44 0 2.29 0 2.29-31.69 5.44-31.69 5.44-21.53 6.2-21.53Q7.08-22.83 8.24-23.45 9.4-24.07 11.43-24.07L11.43-24.07Q14.23-24.07 15.54-22.86 16.85-21.66 16.92-18.82L16.92-18.82Q17.02-16.67 17.04-14.21 17.07-11.74 17.04-9.35 17.02-6.96 16.92-4.96L16.92-4.96Q16.85-2.15 15.47-0.93 14.09 0.29 11.28 0.29ZM10.5-2.37L10.5-2.37Q12.23-2.37 12.99-2.93 13.75-3.49 13.79-4.69L13.79-4.69Q13.96-7.89 13.96-11.66 13.96-15.43 13.79-19.09L13.79-19.09Q13.75-20.31 12.99-20.86 12.23-21.41 10.5-21.41L10.5-21.41Q6.71-21.41 5.44-19.19L5.44-19.19 5.44-4.59Q6.74-2.37 10.5-2.37ZM49.33 0.29L49.33 0.29Q45.35 0.29 43.72-1.07 42.08-2.44 41.96-5.62L41.96-5.62Q41.81-7.42 41.76-9.63 41.71-11.84 41.76-14.09 41.81-16.33 41.96-18.16L41.96-18.16Q42.08-21.34 43.73-22.71 45.38-24.07 49.33-24.07L49.33-24.07Q53.33-24.07 54.93-22.71 56.53-21.34 56.65-18.16L56.65-18.16Q56.8-16.36 56.85-14.15 56.9-11.94 56.85-9.7 56.8-7.47 56.65-5.62L56.65-5.62Q56.53-2.47 54.93-1.09 53.33 0.29 49.33 0.29ZM49.33-2.44L49.33-2.44Q51.58-2.44 52.53-2.99 53.48-3.54 53.55-4.81L53.55-4.81Q53.8-8.62 53.8-11.89 53.8-15.16 53.55-18.97L53.55-18.97Q53.48-20.26 52.55-20.8 51.63-21.34 49.33-21.34L49.33-21.34Q47.04-21.34 46.1-20.8 45.16-20.26 45.08-18.97L45.08-18.97Q44.86-15.16 44.85-11.88 44.84-8.59 45.08-4.81L45.08-4.81Q45.13-3.54 46.12-2.99 47.11-2.44 49.33-2.44ZM89.16 0.29L89.16 0.29Q85.18 0.29 83.55-1.07 81.91-2.44 81.79-5.62L81.79-5.62Q81.64-7.42 81.6-9.63 81.55-11.84 81.6-14.09 81.64-16.33 81.79-18.16L81.79-18.16Q81.91-21.34 83.56-22.71 85.21-24.07 89.16-24.07L89.16-24.07Q93.17-24.07 94.77-22.71 96.37-21.34 96.49-18.16L96.49-18.16Q96.63-16.36 96.68-14.15 96.73-11.94 96.68-9.7 96.63-7.47 96.49-5.62L96.49-5.62Q96.37-2.47 94.77-1.09 93.17 0.29 89.16 0.29ZM89.16-2.44L89.16-2.44Q91.41-2.44 92.36-2.99 93.31-3.54 93.39-4.81L93.39-4.81Q93.63-8.62 93.63-11.89 93.63-15.16 93.39-18.97L93.39-18.97Q93.31-20.26 92.39-20.8 91.46-21.34 89.16-21.34L89.16-21.34Q86.87-21.34 85.93-20.8 84.99-20.26 84.92-18.97L84.92-18.97Q84.7-15.16 84.68-11.88 84.67-8.59 84.92-4.81L84.92-4.81Q84.96-3.54 85.95-2.99 86.94-2.44 89.16-2.44ZM128.34 0.29L128.34 0.29Q124.41 0.29 122.88-0.98 121.36-2.25 121.23-5.13L121.23-5.13Q121.18-5.88 121.17-6.82 121.16-7.76 121.26-8.47L121.26-8.47 124.11-8.47Q124.07-7.35 124.08-6.41 124.09-5.47 124.11-4.81L124.11-4.81Q124.14-3.47 125.05-2.95 125.97-2.44 128.34-2.44L128.34-2.44Q130.75-2.44 131.74-2.95 132.73-3.47 132.81-4.81L132.81-4.81Q132.88-5.64 132.9-6.04 132.93-6.45 132.9-7.2L132.9-7.2Q132.83-8.45 132.24-9.13 131.66-9.81 129.7-10.11L129.7-10.11 126.85-10.77Q124.65-11.23 123.45-11.94 122.26-12.65 121.77-13.78 121.28-14.92 121.18-16.65L121.18-16.65Q121.11-17.53 121.31-18.58L121.31-18.58Q121.36-21.53 122.91-22.8 124.46-24.07 128.56-24.07L128.56-24.07Q132.49-24.07 134.01-22.83 135.54-21.58 135.69-18.73L135.69-18.73Q135.69-17.99 135.67-17.05 135.66-16.11 135.59-15.41L135.59-15.41 132.63-15.41Q132.76-16.26 132.74-17.36 132.73-18.46 132.68-19.07L132.68-19.07Q132.66-20.36 131.79-20.85 130.93-21.34 128.56-21.34L128.56-21.34Q126.16-21.34 125.3-20.85 124.43-20.36 124.33-19.07L124.33-19.07Q124.31-18.46 124.26-18.05 124.21-17.65 124.24-16.94L124.24-16.94Q124.31-16.09 124.49-15.43 124.68-14.77 125.32-14.34 125.97-13.92 127.43-13.7L127.43-13.7 130.17-13.13Q133.15-12.52 134.51-11.24 135.88-9.96 135.88-7.37L135.88-7.37Q135.88-6.84 135.87-6.23 135.86-5.62 135.81-5.05L135.81-5.05Q135.64-2.2 134.01-0.95 132.39 0.29 128.34 0.29ZM168.12 0.29L168.12 0.29Q164.31 0.29 162.98-0.98 161.65-2.25 161.65-5.13L161.65-5.13 161.65-21.02 159.31-21.02 159.31-23.75 161.73-23.75 161.73-30.49 164.83-30.49 164.83-23.75 170.2-23.75 170.2-21.02 164.8-21.02 164.8-4.79Q164.8-3.44 165.36-2.93 165.92-2.42 168.2-2.42L168.2-2.42Q169.12-2.42 169.62-2.45 170.12-2.49 170.78-2.51L170.78-2.51 170.78 0.1Q170.2 0.2 169.51 0.24 168.83 0.29 168.12 0.29ZM197.97-31.69L197.97-28.17 194.82-28.17 194.82-31.69 197.97-31.69ZM197.97-23.75L197.97 0 194.8 0 194.8-23.75 197.97-23.75ZM227.16-19.19L227.16 0 224.01 0 224.01-23.75 227.16-23.75 227.16-21.53 227.92-21.53Q228.67-22.75 229.91-23.41 231.14-24.07 233.02-24.07L233.02-24.07Q235.78-24.07 237.12-22.86 238.46-21.66 238.46-18.82L238.46-18.82 238.46 0 235.34 0 235.34-19.09Q235.34-20.31 234.57-20.86 233.8-21.41 232.09-21.41L232.09-21.41Q230.38-21.41 229.09-20.83 227.79-20.24 227.16-19.19L227.16-19.19ZM270.48 6.86L270.48 6.86Q267.16 6.86 265.14 6.03 263.11 5.2 262.99 3.42L262.99 3.42Q262.99 3.22 262.96 2.95 262.94 2.69 262.94 2.39L262.94 2.39Q263.04 1.32 264.03 0.66 265.01 0 266.31-0.15L266.31-0.15 266.31-0.76Q263.89-1.27 263.82-2.86L263.82-2.86Q263.79-3.27 263.82-3.69L263.82-3.69Q263.84-4.52 264.59-5.08 265.33-5.64 266.26-5.74L266.26-5.74 266.26-6.35Q263.72-7.45 263.55-11.21L263.55-11.21Q263.48-12.67 263.44-13.76 263.4-14.84 263.43-15.95 263.45-17.07 263.55-18.58L263.55-18.58Q263.67-21.48 265.25-22.78 266.82-24.07 270.29-24.07L270.29-24.07Q272.83-24.07 274.32-23.49 275.81-22.9 276.46-21.66L276.46-21.66 277.15-21.66Q277.32-23.75 280.3-23.75L280.3-23.75 280.3-21.02 279.44-21.02Q277.27-21.02 277.17-18.51L277.17-18.51 277.12-16.58Q277.17-15.16 277.17-14.01 277.17-12.87 277.03-11.21L277.03-11.21Q276.9-8.25 275.37-6.98 273.83-5.71 270.29-5.71L270.29-5.71Q268.24-5.74 267.31-5.4 266.38-5.05 266.38-4.27L266.38-4.27 266.38-4.08Q266.43-3.37 267.41-3.08 268.38-2.78 270.65-2.73L270.65-2.73Q274.29-2.64 276.23-1.7 278.17-0.76 278.34 1.42L278.34 1.42 278.34 2.69Q278.17 4.98 276 5.92 273.83 6.86 270.48 6.86ZM270.29-8.47L270.29-8.47Q272.24-8.47 273.06-9.01 273.88-9.55 273.95-10.77L273.95-10.77Q274.07-12.5 274.07-14.81 274.07-17.11 273.95-19.02L273.95-19.02Q273.88-20.31 273.05-20.83 272.22-21.34 270.29-21.34L270.29-21.34Q268.36-21.34 267.53-20.81 266.7-20.29 266.6-18.99L266.6-18.99Q266.33-14.36 266.6-10.82L266.6-10.82Q266.7-9.62 267.55-9.05 268.41-8.47 270.29-8.47ZM270.56 4.27L270.56 4.27Q272.66 4.27 273.99 3.88 275.32 3.49 275.41 2.49L275.41 2.49Q275.44 2.22 275.43 1.99 275.41 1.76 275.41 1.51L275.41 1.51Q275.32 0.46 274.01 0.16 272.7-0.15 270.56-0.2L270.56-0.2Q268.48-0.24 267.25 0.12 266.02 0.49 265.89 1.54L265.89 1.54 265.89 2.49Q266.02 3.56 267.26 3.92 268.51 4.27 270.56 4.27ZM336.4 8.13L336.4 8.13Q335.62 8.13 334.54 8.06 333.45 7.98 332.74 7.91L332.74 7.91 332.74 5.2Q334.26 5.32 336.31 5.32L336.31 5.32Q338.48 5.32 339.25 4.8 340.02 4.27 340.29 2.95L340.29 2.95 340.99 0 337.7 0 333.3-23.75 336.53-23.75 338.16-12.43 340.04-2.71 341.53-2.71 343.53-12.43 345.27-23.75 348.51-23.75 343.39 2.71Q342.92 5.59 341.43 6.86 339.94 8.13 336.4 8.13ZM379.66 0.29L379.66 0.29Q375.68 0.29 374.04-1.07 372.4-2.44 372.28-5.62L372.28-5.62Q372.14-7.42 372.09-9.63 372.04-11.84 372.09-14.09 372.14-16.33 372.28-18.16L372.28-18.16Q372.4-21.34 374.05-22.71 375.7-24.07 379.66-24.07L379.66-24.07Q383.66-24.07 385.26-22.71 386.86-21.34 386.98-18.16L386.98-18.16Q387.13-16.36 387.18-14.15 387.22-11.94 387.18-9.7 387.13-7.47 386.98-5.62L386.98-5.62Q386.86-2.47 385.26-1.09 383.66 0.29 379.66 0.29ZM379.66-2.44L379.66-2.44Q381.9-2.44 382.85-2.99 383.81-3.54 383.88-4.81L383.88-4.81Q384.12-8.62 384.12-11.89 384.12-15.16 383.88-18.97L383.88-18.97Q383.81-20.26 382.88-20.8 381.95-21.34 379.66-21.34L379.66-21.34Q377.36-21.34 376.42-20.8 375.48-20.26 375.41-18.97L375.41-18.97Q375.19-15.16 375.18-11.88 375.16-8.59 375.41-4.81L375.41-4.81Q375.46-3.54 376.45-2.99 377.43-2.44 379.66-2.44ZM417.63 0.29L417.63 0.29Q414.9 0.29 413.52-0.93 412.14-2.15 412.14-4.96L412.14-4.96 412.14-23.75 415.27-23.75 415.27-4.69Q415.27-3.49 416.02-2.93 416.78-2.37 418.49-2.37L418.49-2.37Q420.22-2.37 421.53-2.95 422.83-3.54 423.44-4.59L423.44-4.59 423.44-23.75 426.62-23.75 426.62 0 423.44 0 423.44-2.25 422.78-2.25Q421.17 0.29 417.63 0.29ZM455.29-19.19L455.29 0 452.14 0 452.14-23.75 455.29-23.75 455.29-21.53 455.98-21.53Q456.61-22.75 457.66-23.41 458.71-24.07 460.27-24.07L460.27-24.07Q462.62-24.07 463.75-22.84 464.89-21.61 464.89-18.58L464.89-18.58Q464.89-17.92 464.84-17.02 464.79-16.11 464.69-15.41L464.69-15.41 461.67-15.41Q461.71-15.65 461.73-16.26 461.74-16.87 461.75-17.48 461.76-18.09 461.76-18.31L461.76-18.31Q461.76-20.12 461.15-20.76 460.54-21.41 459.2-21.41L459.2-21.41Q456.34-21.41 455.29-19.19L455.29-19.19ZM523.34-2.25L523.34 7.91 520.19 7.91 520.19-23.75 523.34-23.75 523.34-21.53 524.02-21.53Q524.85-22.83 526.01-23.45 527.17-24.07 529.2-24.07L529.2-24.07Q531.98-24.07 533.31-22.86 534.64-21.66 534.72-18.82L534.72-18.82Q534.79-17.58 534.81-15.81 534.84-14.04 534.84-12.07 534.84-10.11 534.81-8.25 534.79-6.4 534.72-4.96L534.72-4.96Q534.64-2.15 533.25-0.93 531.86 0.29 529.08 0.29L529.08 0.29Q527.25 0.29 526.07-0.31 524.9-0.9 524.02-2.25L524.02-2.25 523.34-2.25ZM528.2-2.37L528.2-2.37Q531.49-2.37 531.59-4.69L531.59-4.69Q531.79-8.47 531.75-12.16 531.71-15.84 531.59-19.09L531.59-19.09Q531.54-20.31 530.81-20.86 530.08-21.41 528.34-21.41L528.34-21.41Q524.61-21.41 523.34-19.19L523.34-19.19 523.34-4.59Q524-3.39 525.13-2.88 526.27-2.37 528.2-2.37ZM563.15-19.19L563.15 0 560 0 560-23.75 563.15-23.75 563.15-21.53 563.83-21.53Q564.47-22.75 565.52-23.41 566.57-24.07 568.13-24.07L568.13-24.07Q570.47-24.07 571.61-22.84 572.74-21.61 572.74-18.58L572.74-18.58Q572.74-17.92 572.69-17.02 572.65-16.11 572.55-15.41L572.55-15.41 569.52-15.41Q569.57-15.65 569.58-16.26 569.59-16.87 569.61-17.48 569.62-18.09 569.62-18.31L569.62-18.31Q569.62-20.12 569.01-20.76 568.4-21.41 567.05-21.41L567.05-21.41Q564.2-21.41 563.15-19.19L563.15-19.19ZM604.57 0.29L604.57 0.29Q600.59 0.29 598.95-1.07 597.32-2.44 597.2-5.62L597.2-5.62Q597.05-7.42 597-9.63 596.95-11.84 597-14.09 597.05-16.33 597.2-18.16L597.2-18.16Q597.32-21.34 598.97-22.71 600.61-24.07 604.57-24.07L604.57-24.07Q608.57-24.07 610.17-22.71 611.77-21.34 611.89-18.16L611.89-18.16Q612.04-16.36 612.09-14.15 612.14-11.94 612.09-9.7 612.04-7.47 611.89-5.62L611.89-5.62Q611.77-2.47 610.17-1.09 608.57 0.29 604.57 0.29ZM604.57-2.44L604.57-2.44Q606.81-2.44 607.77-2.99 608.72-3.54 608.79-4.81L608.79-4.81Q609.04-8.62 609.04-11.89 609.04-15.16 608.79-18.97L608.79-18.97Q608.72-20.26 607.79-20.8 606.86-21.34 604.57-21.34L604.57-21.34Q602.27-21.34 601.33-20.8 600.39-20.26 600.32-18.97L600.32-18.97Q600.1-15.16 600.09-11.88 600.08-8.59 600.32-4.81L600.32-4.81Q600.37-3.54 601.36-2.99 602.35-2.44 604.57-2.44ZM651.65-15.41L651.65-15.41 648.58-15.41Q648.67-16.26 648.66-17.36 648.65-18.46 648.65-19.07L648.65-19.07Q648.63-20.36 647.64-20.85 646.65-21.34 644.4-21.34L644.4-21.34Q642.11-21.34 641.13-20.85 640.15-20.36 640.13-19.07L640.13-19.07Q639.96-15.23 639.96-11.93 639.96-8.62 640.13-4.81L640.13-4.81Q640.15-3.47 641.13-2.95 642.11-2.44 644.38-2.44L644.38-2.44Q646.62-2.44 647.62-2.95 648.63-3.47 648.65-4.81L648.65-4.81Q648.65-5.47 648.66-6.41 648.67-7.35 648.58-8.47L648.58-8.47 651.65-8.47Q651.77-7.76 651.76-6.82 651.75-5.88 651.7-5.13L651.7-5.13Q651.55-2.25 649.91-0.98 648.26 0.29 644.38 0.29L644.38 0.29Q640.47 0.29 638.77-0.98 637.08-2.25 636.96-5.13L636.96-5.13Q636.86-6.93 636.82-9.38 636.78-11.82 636.82-14.28 636.86-16.75 636.96-18.58L636.96-18.58Q637.08-21.53 638.8-22.8 640.52-24.07 644.4-24.07L644.4-24.07Q648.26-24.07 649.96-22.83 651.65-21.58 651.7-18.73L651.7-18.73Q651.75-17.99 651.76-17.05 651.77-16.11 651.65-15.41ZM683.89 0.29L683.89 0.29Q679.86 0.29 678.14-0.98 676.42-2.25 676.3-5.13L676.3-5.13Q676.2-6.93 676.17-9.38 676.13-11.82 676.17-14.28 676.2-16.75 676.3-18.58L676.3-18.58Q676.42-21.53 678.19-22.8 679.96-24.07 683.89-24.07L683.89-24.07Q687.6-24.07 689.26-22.83 690.92-21.58 691.1-18.73L691.1-18.73Q691.14-17.87 691.19-15.75 691.24-13.62 691.05-11.23L691.05-11.23 679.35-11.23Q679.35-9.69 679.38-8.11 679.4-6.52 679.47-4.81L679.47-4.81Q679.5-3.47 680.5-2.95 681.5-2.44 683.8-2.44L683.8-2.44Q686.07-2.44 686.99-2.95 687.92-3.47 688.02-4.81L688.02-4.81Q688.09-6.15 688.02-8.47L688.02-8.47 691.05-8.47Q691.17-7.76 691.16-6.82 691.14-5.88 691.1-5.13L691.1-5.13Q690.92-2.25 689.35-0.98 687.77 0.29 683.89 0.29ZM679.35-13.82L679.35-13.82 688.07-13.82Q688.12-15.48 688.12-16.99 688.12-18.51 688.02-19.07L688.02-19.07Q687.92-20.29 686.97-20.81 686.02-21.34 683.89-21.34L683.89-21.34Q681.52-21.34 680.51-20.81 679.5-20.29 679.47-19.07L679.47-19.07Q679.4-17.65 679.36-16.36 679.33-15.06 679.35-13.82ZM722.63 0.29L722.63 0.29Q718.7 0.29 717.17-0.98 715.65-2.25 715.52-5.13L715.52-5.13Q715.47-5.88 715.46-6.82 715.45-7.76 715.55-8.47L715.55-8.47 718.4-8.47Q718.36-7.35 718.37-6.41 718.38-5.47 718.4-4.81L718.4-4.81Q718.43-3.47 719.34-2.95 720.26-2.44 722.63-2.44L722.63-2.44Q725.04-2.44 726.03-2.95 727.02-3.47 727.1-4.81L727.1-4.81Q727.17-5.64 727.19-6.04 727.22-6.45 727.19-7.2L727.19-7.2Q727.12-8.45 726.53-9.13 725.95-9.81 723.99-10.11L723.99-10.11 721.14-10.77Q718.94-11.23 717.74-11.94 716.55-12.65 716.06-13.78 715.57-14.92 715.47-16.65L715.47-16.65Q715.4-17.53 715.6-18.58L715.6-18.58Q715.65-21.53 717.2-22.8 718.75-24.07 722.85-24.07L722.85-24.07Q726.78-24.07 728.3-22.83 729.83-21.58 729.98-18.73L729.98-18.73Q729.98-17.99 729.96-17.05 729.95-16.11 729.88-15.41L729.88-15.41 726.92-15.41Q727.05-16.26 727.03-17.36 727.02-18.46 726.97-19.07L726.97-19.07Q726.95-20.36 726.08-20.85 725.22-21.34 722.85-21.34L722.85-21.34Q720.45-21.34 719.59-20.85 718.72-20.36 718.62-19.07L718.62-19.07Q718.6-18.46 718.55-18.05 718.5-17.65 718.53-16.94L718.53-16.94Q718.6-16.09 718.78-15.43 718.97-14.77 719.61-14.34 720.26-13.92 721.72-13.7L721.72-13.7 724.46-13.13Q727.44-12.52 728.8-11.24 730.17-9.96 730.17-7.37L730.17-7.37Q730.17-6.84 730.16-6.23 730.15-5.62 730.1-5.05L730.1-5.05Q729.93-2.2 728.3-0.95 726.68 0.29 722.63 0.29ZM761.46 0.29L761.46 0.29Q757.53 0.29 756-0.98 754.48-2.25 754.36-5.13L754.36-5.13Q754.31-5.88 754.29-6.82 754.28-7.76 754.38-8.47L754.38-8.47 757.24-8.47Q757.19-7.35 757.2-6.41 757.21-5.47 757.24-4.81L757.24-4.81Q757.26-3.47 758.18-2.95 759.09-2.44 761.46-2.44L761.46-2.44Q763.88-2.44 764.87-2.95 765.85-3.47 765.93-4.81L765.93-4.81Q766-5.64 766.03-6.04 766.05-6.45 766.03-7.2L766.03-7.2Q765.95-8.45 765.37-9.13 764.78-9.81 762.83-10.11L762.83-10.11 759.97-10.77Q757.77-11.23 756.58-11.94 755.38-12.65 754.89-13.78 754.4-14.92 754.31-16.65L754.31-16.65Q754.23-17.53 754.43-18.58L754.43-18.58Q754.48-21.53 756.03-22.8 757.58-24.07 761.68-24.07L761.68-24.07Q765.61-24.07 767.14-22.83 768.66-21.58 768.81-18.73L768.81-18.73Q768.81-17.99 768.8-17.05 768.78-16.11 768.71-15.41L768.71-15.41 765.76-15.41Q765.88-16.26 765.87-17.36 765.85-18.46 765.81-19.07L765.81-19.07Q765.78-20.36 764.91-20.85 764.05-21.34 761.68-21.34L761.68-21.34Q759.29-21.34 758.42-20.85 757.55-20.36 757.46-19.07L757.46-19.07Q757.43-18.46 757.38-18.05 757.33-17.65 757.36-16.94L757.36-16.94Q757.43-16.09 757.61-15.43 757.8-14.77 758.44-14.34 759.09-13.92 760.56-13.7L760.56-13.7 763.29-13.13Q766.27-12.52 767.64-11.24 769-9.96 769-7.37L769-7.37Q769-6.84 768.99-6.23 768.98-5.62 768.93-5.05L768.93-5.05Q768.76-2.2 767.14-0.95 765.51 0.29 761.46 0.29Z" opacity="1" transform="matrix(1,0,0,1,0,0)" fill="#ffffff" class="slogan-text-1" data-fill-palette-color="quaternary" id="text-1"></path></svg></g></svg></g></svg></g></svg></g><g transform="matrix(1,0,0,1,89.35170051744281,0)"><svg viewBox="0 0 34.4550401922715 45.90005220797595" height="45.90005220797595" width="34.4550401922715"><g><svg xmlns="http://www.w3.org/2000/svg" xmlns:xlink="http://www.w3.org/1999/xlink" version="1.1" x="0" y="0" viewBox="17.950558037802196 5.630000218006815 66.4274359670627 88.49279414319402" enable-background="new 0 0 100 100" xml:space="preserve" height="45.90005220797595" width="34.4550401922715" class="icon-icon-0" data-fill-palette-color="quaternary" id="icon-0"><g fill="#ffffff" data-fill-palette-color="quaternary"><circle cx="45.14" cy="18.003" r="12" fill="#ffffff" data-fill-palette-color="quaternary"></circle><path d="M70.509 64.249L67.279 42.091A6.85 6.85 0 0 0 60.487 36.089L47.939 36.075V38.428C47.939 38.964 47.611 39.424 47.146 39.619L50.893 67.087 45.033 75.248 39.388 67.087 42.913 39.558A1.29 1.29 0 0 1 42.234 38.428V36.069L28.607 36.054A6.85 6.85 0 0 0 21.777 42.282L17.966 74.967A3.91 3.91 0 0 0 21.862 79.224H53.961C54.952 70.892 61.952 64.418 70.509 64.249" fill="#ffffff" data-fill-palette-color="quaternary"></path><g fill="#ffffff" data-fill-palette-color="quaternary"><path d="M81.919 73.165L68.123 87.605A0.376 0.376 0 0 1 67.505 87.492L64.049 79.334A0.37 0.37 0 0 1 64.154 78.903L66.739 76.764A0.376 0.376 0 0 1 67.327 76.913L69.18 81.512A0.396 0.396 0 0 0 69.819 81.653L80.571 71.549A13.25 13.25 0 0 0 69.419 67.675C63.486 68.406 58.686 73.184 57.936 79.115 56.839 87.788 64.119 95.085 72.786 94.019 78.545 93.311 83.267 88.78 84.197 83.053 84.802 79.345 83.852 75.881 81.919 73.165" fill="#ffffff" data-fill-palette-color="quaternary"></path></g></g></svg></g></svg></g><g></g></svg></g></svg></g></svg></g></svg></g><defs></defs></svg><rect width="342.85155851775386" height="342.85155851775386" fill="none" stroke="none" visibility="hidden"></rect></g></svg></g></svg>